# Blender v2.79 (sub 0) OBJ File: 'mushroom.blend'
# www.blender.org
mtllib mushroom.mtl
o Cylinder
v 0.000001 2.043336 0.000000
v 0.000000 0.000000 0.000000
v 0.000001 2.000000 -0.479284
v -0.175823 -0.014924 -0.647246
v -0.281716 2.000000 -0.387749
v -0.552050 -0.014924 -0.525002
v -0.455826 2.000000 -0.148107
v -0.784572 -0.014924 -0.204964
v -0.455826 2.000000 0.148107
v -0.784572 -0.014924 0.190625
v -0.281716 2.000000 0.387750
v -0.552050 -0.014924 0.510663
v 0.000001 2.000000 0.479285
v -0.175823 -0.014924 0.632907
v 0.281717 2.000000 0.387750
v 0.200405 -0.014925 0.510663
v 0.455827 2.000000 0.148107
v 0.432926 -0.014925 0.190625
v 0.455827 2.000000 -0.148107
v 0.432926 -0.014925 -0.204964
v 0.281717 2.000000 -0.387749
v 0.200404 -0.014924 -0.525002
v 0.000001 1.819640 -1.000000
v -0.587785 1.819640 -0.809017
v -0.951056 1.819640 -0.309017
v -0.951056 1.819640 0.309017
v -0.587785 1.819639 0.809017
v 0.000001 1.819639 1.000000
v 0.587786 1.819639 0.809017
v 0.951057 1.819639 0.309017
v 0.951057 1.819639 -0.309017
v 0.587786 1.819639 -0.809017
v 0.000001 1.536097 -1.230060
v -0.723011 1.536097 -0.995139
v -1.169856 1.536098 -0.380109
v -1.169856 1.536097 0.380110
v -0.723011 1.536097 0.995140
v 0.000001 1.536097 1.230060
v 0.723012 1.536097 0.995140
v 1.169857 1.536097 0.380110
v 1.169857 1.536097 -0.380109
v 0.723011 1.536097 -0.995140
v 0.000000 1.465408 -0.305478
v -0.179555 1.465408 -0.247137
v -0.290527 1.465408 -0.094398
v -0.290527 1.465408 0.094398
v -0.179555 1.465408 0.247138
v 0.000000 1.465408 0.305479
v 0.179556 1.465408 0.247138
v 0.290528 1.465408 0.094398
v 0.290528 1.465408 -0.094398
v 0.179556 1.465408 -0.247137
vt 0.239959 0.250655
vt 0.292458 0.210748
vt 0.305888 0.249228
vt 0.709677 0.701398
vt 0.817036 0.588533
vt 0.842029 0.665469
vt 0.302508 0.668495
vt 0.447070 0.636389
vt 0.442932 0.731656
vt 0.303013 0.673815
vt 0.294136 0.288253
vt 0.751591 0.540981
vt 0.384910 0.804998
vt 0.299845 0.678344
vt 0.261689 0.312916
vt 0.670694 0.540981
vt 0.296264 0.834641
vt 0.294454 0.679799
vt 0.220943 0.313798
vt 0.605250 0.588533
vt 0.204465 0.805519
vt 0.289609 0.677600
vt 0.187460 0.290561
vt 0.580257 0.665469
vt 0.146786 0.726411
vt 0.287172 0.672957
vt 0.174030 0.252082
vt 0.605259 0.742399
vt 0.146786 0.627328
vt 0.287649 0.667930
vt 0.185783 0.213057
vt 0.670700 0.789941
vt 0.206091 0.545769
vt 0.290271 0.664337
vt 0.218229 0.188393
vt 0.751585 0.789941
vt 0.302878 0.520553
vt 0.294439 0.663039
vt 0.258976 0.187512
vt 0.817027 0.742399
vt 0.394124 0.555746
vt 0.299061 0.664512
vt 0.282481 0.115144
vt 0.354011 0.166017
vt 0.194708 0.116030
vt 0.124220 0.168339
vt 0.097941 0.252090
vt 0.125907 0.335292
vt 0.197438 0.386166
vt 0.285210 0.385279
vt 0.355698 0.332970
vt 0.381978 0.249220
vt 0.301432 0.061462
vt 0.400896 0.133727
vt 0.178487 0.061462
vt 0.079022 0.133727
vt 0.041030 0.250655
vt 0.079022 0.367582
vt 0.178487 0.439847
vt 0.301432 0.439847
vt 0.400896 0.367582
vt 0.438888 0.250655
vt 0.874741 0.415189
vt 0.796001 0.306766
vt 0.812017 0.284700
vt 0.939438 0.326143
vt 0.770051 0.449209
vt 0.770077 0.315215
vt 0.665357 0.415194
vt 0.744140 0.306810
vt 0.600654 0.326139
vt 0.728101 0.284764
vt 0.600654 0.216059
vt 0.728083 0.257498
vt 0.665357 0.127002
vt 0.744095 0.235428
vt 0.770051 0.092986
vt 0.770021 0.226983
vt 0.874745 0.127005
vt 0.795959 0.235390
vt 0.939445 0.216065
vt 0.812000 0.257436
vn -0.0292 0.9955 -0.0900
vn 0.0069 -0.9998 0.0212
vn -0.2993 0.2483 -0.9213
vn -0.0766 0.9955 -0.0556
vn 0.0160 -0.9998 0.0116
vn -0.7719 0.2995 -0.5608
vn -0.0946 0.9955 0.0000
vn 0.0190 -0.9998 -0.0000
vn -0.9486 0.3166 0.0000
vn -0.0766 0.9955 0.0556
vn 0.0162 -0.9998 -0.0117
vn -0.7731 0.2945 0.5617
vn -0.0292 0.9955 0.0900
vn 0.0070 -0.9997 -0.0216
vn -0.3000 0.2399 0.9233
vn 0.0292 0.9955 0.0900
vn -0.0084 -0.9996 -0.0259
vn 0.3045 0.1711 0.9370
vn 0.0766 0.9955 0.0556
vn -0.0261 -0.9995 -0.0190
vn 0.8036 0.1153 0.5839
vn 0.0946 0.9955 0.0000
vn -0.0345 -0.9994 -0.0000
vn 0.9954 0.0958 0.0000
vn 0.0766 0.9955 -0.0556
vn -0.0256 -0.9995 0.0186
vn 0.8031 0.1208 -0.5835
vn 0.0292 0.9955 -0.0900
vn -0.0082 -0.9996 0.0253
vn 0.3040 0.1799 -0.9355
vn 0.1057 0.9396 -0.3255
vn 0.2769 0.9396 -0.2011
vn 0.3422 0.9396 0.0000
vn 0.2769 0.9396 0.2011
vn 0.1057 0.9396 0.3255
vn -0.1057 0.9396 0.3255
vn -0.2769 0.9396 0.2011
vn -0.3422 0.9396 0.0000
vn -0.2769 0.9396 -0.2011
vn -0.1057 0.9396 -0.3255
vn 0.2446 0.6109 -0.7529
vn 0.6405 0.6109 -0.4653
vn 0.7917 0.6109 0.0000
vn 0.6405 0.6109 0.4653
vn 0.2446 0.6109 0.7529
vn -0.2446 0.6109 0.7529
vn -0.6405 0.6109 0.4653
vn -0.7917 0.6109 0.0000
vn -0.6405 0.6109 -0.4653
vn -0.2446 0.6109 -0.7529
vn 0.0248 -0.9968 -0.0762
vn 0.0648 -0.9968 -0.0471
vn 0.0801 -0.9968 0.0000
vn 0.0648 -0.9968 0.0471
vn 0.0248 -0.9968 0.0762
vn -0.0248 -0.9968 0.0762
vn -0.0648 -0.9968 0.0471
vn -0.0801 -0.9968 0.0000
vn -0.0648 -0.9968 -0.0471
vn -0.0248 -0.9968 -0.0762
usemtl mushroom
s off
f 1/1/1 3/2/1 5/3/1
f 2/4/2 6/5/2 4/6/2
f 43/7/3 4/8/3 6/9/3 44/10/3
f 1/1/4 5/3/4 7/11/4
f 2/4/5 8/12/5 6/5/5
f 44/10/6 6/9/6 8/13/6 45/14/6
f 1/1/7 7/11/7 9/15/7
f 2/4/8 10/16/8 8/12/8
f 45/14/9 8/13/9 10/17/9 46/18/9
f 1/1/10 9/15/10 11/19/10
f 2/4/11 12/20/11 10/16/11
f 46/18/12 10/17/12 12/21/12 47/22/12
f 1/1/13 11/19/13 13/23/13
f 2/4/14 14/24/14 12/20/14
f 47/22/15 12/21/15 14/25/15 48/26/15
f 1/1/16 13/23/16 15/27/16
f 2/4/17 16/28/17 14/24/17
f 48/26/18 14/25/18 16/29/18 49/30/18
f 1/1/19 15/27/19 17/31/19
f 2/4/20 18/32/20 16/28/20
f 49/30/21 16/29/21 18/33/21 50/34/21
f 1/1/22 17/31/22 19/35/22
f 2/4/23 20/36/23 18/32/23
f 50/34/24 18/33/24 20/37/24 51/38/24
f 1/1/25 19/35/25 21/39/25
f 2/4/26 22/40/26 20/36/26
f 51/38/27 20/37/27 22/41/27 52/42/27
f 1/1/28 21/39/28 3/2/28
f 2/4/29 4/6/29 22/40/29
f 52/42/30 22/41/30 4/8/30 43/7/30
f 21/39/31 32/43/31 23/44/31 3/2/31
f 19/35/32 31/45/32 32/43/32 21/39/32
f 17/31/33 30/46/33 31/45/33 19/35/33
f 15/27/34 29/47/34 30/46/34 17/31/34
f 13/23/35 28/48/35 29/47/35 15/27/35
f 11/19/36 27/49/36 28/48/36 13/23/36
f 9/15/37 26/50/37 27/49/37 11/19/37
f 7/11/38 25/51/38 26/50/38 9/15/38
f 5/3/39 24/52/39 25/51/39 7/11/39
f 3/2/40 23/44/40 24/52/40 5/3/40
f 32/43/41 42/53/41 33/54/41 23/44/41
f 31/45/42 41/55/42 42/53/42 32/43/42
f 30/46/43 40/56/43 41/55/43 31/45/43
f 29/47/44 39/57/44 40/56/44 30/46/44
f 28/48/45 38/58/45 39/57/45 29/47/45
f 27/49/46 37/59/46 38/58/46 28/48/46
f 26/50/47 36/60/47 37/59/47 27/49/47
f 25/51/48 35/61/48 36/60/48 26/50/48
f 24/52/49 34/62/49 35/61/49 25/51/49
f 23/44/50 33/54/50 34/62/50 24/52/50
f 42/63/51 52/64/51 43/65/51 33/66/51
f 41/67/52 51/68/52 52/64/52 42/63/52
f 40/69/53 50/70/53 51/68/53 41/67/53
f 39/71/54 49/72/54 50/70/54 40/69/54
f 38/73/55 48/74/55 49/72/55 39/71/55
f 37/75/56 47/76/56 48/74/56 38/73/56
f 36/77/57 46/78/57 47/76/57 37/75/57
f 35/79/58 45/80/58 46/78/58 36/77/58
f 34/81/59 44/82/59 45/80/59 35/79/59
f 33/66/60 43/65/60 44/82/60 34/81/60
